<?xml version="1.0" standalone="no"?>
<!DOCTYPE svg PUBLIC "-//W3C//DTD SVG 20010904//EN"
 "http://www.w3.org/TR/2001/REC-SVG-20010904/DTD/svg10.dtd">
<svg version="1.0" xmlns="http://www.w3.org/2000/svg"
 width="700.000000pt" height="700.000000pt" viewBox="0 0 700.000000 700.000000"
 preserveAspectRatio="xMidYMid meet">
<metadata>
Created by potrace 1.14, written by Peter Selinger 2001-2017
</metadata>
<g transform="translate(0.000000,700.000000) scale(0.100000,-0.100000)"
fill="#000000" stroke="none">
<path d="M2375 6391 c-22 -11 -53 -14 -115 -11 -231 10 -453 5 -631 -16 -93
-10 -157 -10 -152 1 6 16 -256 17 -338 1 -134 -25 -208 -87 -250 -206 -19 -56
-23 -86 -23 -215 -1 -82 2 -184 7 -225 14 -140 18 -175 23 -200 2 -14 7 -81
10 -150 3 -69 7 -130 9 -137 11 -34 105 -54 180 -39 43 8 100 46 104 68 1 7 4
184 7 393 3 209 7 385 8 390 6 18 122 19 1616 15 493 -1 661 2 885 16 141 9
246 9 313 1 161 -21 541 -25 1052 -13 320 7 724 8 875 1 219 -10 361 -21 376
-30 3 -2 7 -57 8 -122 2 -65 4 -185 6 -268 5 -200 15 -1434 19 -2557 l4 -906
-21 -20 c-12 -11 -44 -31 -72 -45 -66 -33 -88 -59 -88 -102 0 -48 20 -81 57
-97 98 -40 269 31 332 138 29 49 29 49 27 224 0 96 -4 333 -9 525 -9 397 -9
2415 0 2545 15 210 15 585 0 673 -26 161 -85 233 -230 280 -98 33 -95 33 -734
26 -278 -3 -594 7 -815 26 -176 15 -254 19 -360 18 -66 -1 -136 -4 -155 -7
-19 -4 -107 -9 -195 -12 -149 -4 -158 -4 -132 11 15 9 27 17 27 19 0 2 -26 -3
-57 -10 -81 -19 -101 -17 -127 11 -21 23 -29 24 -119 23 -70 0 -94 -4 -91 -13
6 -15 -122 -54 -151 -47 -17 5 -14 8 18 20 41 16 47 28 18 37 -22 7 -53 2 -94
-14 -16 -6 -74 -11 -131 -11 -80 0 -110 -4 -139 -19 -31 -16 -38 -16 -48 -5
-10 12 -92 42 -136 50 -6 1 -41 -7 -78 -18 -70 -21 -129 -19 -138 7 -8 20
-310 17 -352 -4z"/>
<path d="M838 5165 c-2 -1 -32 -6 -68 -9 -196 -20 -327 -93 -387 -214 l-28
-57 1 -600 c0 -330 4 -628 7 -662 28 -266 28 -770 0 -1553 -9 -247 -8 -751 1
-925 6 -126 10 -163 21 -230 6 -37 33 -122 49 -153 27 -53 102 -99 191 -117
22 -5 47 -10 55 -12 87 -19 309 -22 755 -10 138 4 453 10 700 13 248 3 511 7
585 9 213 5 619 15 810 20 557 15 802 18 1536 19 902 1 821 -5 897 72 52 52
86 121 102 206 13 70 13 115 0 683 -4 203 -5 1446 -1 2440 3 701 1 736 -44
831 -26 52 -80 108 -130 134 -44 22 -141 48 -207 55 -121 12 -1174 21 -1353
11 -47 -2 -60 1 -95 26 l-40 29 -18 -22 c-14 -18 -28 -22 -73 -21 -62 0 -175
10 -216 18 -16 3 -28 1 -28 -4 0 -6 -30 -11 -67 -11 -38 -1 -85 -5 -106 -10
-40 -10 -56 -1 -32 19 8 7 15 15 15 19 0 6 -204 6 -356 1 -39 -2 -77 1 -84 5
-9 6 -11 4 -5 -6 7 -11 6 -12 -6 -4 -26 19 -242 5 -327 -21 -61 -18 -61 -18
-72 11 -10 25 -10 25 -102 19 -51 -4 -127 -5 -168 -4 -41 2 -221 3 -400 3
-286 0 -417 -4 -565 -19 -126 -12 -229 -14 -215 -5 11 8 4 11 -30 12 -25 1
-61 3 -80 5 -44 5 -418 13 -422 9z m4786 -299 c98 -3 181 -8 185 -11 3 -4 7
-23 7 -43 1 -20 4 -167 8 -327 4 -159 9 -351 11 -425 27 -1022 23 -2278 -11
-2950 -4 -80 -7 -160 -8 -178 l0 -32 -201 5 c-110 3 -346 8 -525 10 -363 5
-468 12 -658 41 -21 4 -37 0 -48 -10 -14 -15 -34 -18 -124 -19 -56 0 -122 12
-144 26 -22 15 -50 12 -40 -4 3 -5 -7 -9 -22 -9 -15 0 -56 -7 -91 -16 -73 -18
-93 -16 -69 9 16 16 16 17 -11 18 -15 1 -41 3 -58 5 -93 13 -308 6 -336 -12
-5 -3 -16 2 -25 10 -12 13 -31 15 -87 11 -90 -6 -170 -21 -195 -36 -16 -10
-25 -8 -51 12 -28 21 -42 24 -104 22 -40 -2 -133 -2 -207 -2 -385 4 -566 3
-675 -4 -134 -8 -385 -36 -397 -43 -4 -3 -8 0 -8 5 0 6 7 11 17 11 41 0 -2 11
-90 23 -65 10 -152 12 -274 8 -298 -9 -681 -7 -692 4 -12 12 -19 657 -27 2478
l-5 1367 33 1 c18 1 56 2 83 3 67 3 508 17 665 21 69 2 226 6 350 10 455 12
583 15 980 21 223 3 406 7 407 8 5 5 2263 -3 2437 -8z"/>
<path d="M3808 3955 c-13 -14 -261 -22 -340 -11 -44 6 -64 4 -88 -9 -18 -9
-50 -23 -72 -31 -38 -13 -39 -13 -36 9 3 22 1 22 -92 19 -52 -1 -306 -4 -565
-7 -552 -5 -998 -13 -1040 -19 -16 -3 -64 -8 -105 -11 -41 -4 -84 -9 -95 -11
-11 -2 -35 -4 -53 -6 -49 -3 -57 -20 -57 -119 0 -90 6 -107 41 -113 30 -6 93
-15 159 -23 81 -11 545 -10 790 1 110 5 484 10 830 11 347 1 686 6 755 11 122
9 283 10 775 3 254 -3 321 1 450 27 108 22 109 22 111 88 l2 55 -52 15 c-55
15 -129 31 -186 40 -19 4 -44 8 -56 10 -99 19 -454 27 -602 13 l-82 -8 -25 29
c-24 29 -75 49 -75 30 0 -19 -61 -35 -105 -27 -47 9 -92 4 -111 -12 -9 -7 -14
-4 -18 9 -6 17 -49 45 -58 37z"/>
<path d="M3617 3254 c-1 -1 -33 -5 -72 -8 -75 -8 -239 -43 -267 -58 -20 -10
-26 10 -8 28 9 9 -93 13 -520 18 -74 0 -166 -3 -205 -8 -38 -6 -277 -10 -530
-11 -253 -1 -485 -5 -515 -9 -106 -14 -215 -37 -225 -47 -14 -14 -12 -169 3
-195 9 -18 28 -24 99 -35 100 -16 480 -17 743 -4 91 5 226 8 300 8 74 -1 227
-2 340 -3 113 -2 243 0 290 4 47 3 130 9 185 12 55 3 123 8 150 10 28 2 210 4
405 3 908 -3 1053 -2 1165 4 156 9 202 16 209 33 3 8 8 36 12 63 6 45 4 50
-18 65 -64 42 -150 55 -413 61 -151 4 -202 9 -251 25 -49 15 -68 17 -95 9
-100 -30 -184 -30 -234 1 -19 12 -35 26 -35 32 0 6 -6 8 -12 5 -7 -3 -30 -13
-52 -22 -34 -15 -38 -15 -33 -1 9 24 -26 20 -83 -9 -62 -32 -77 -31 -111 1
-26 25 -35 27 -124 29 -52 1 -96 1 -98 -1z"/>
<path d="M3028 2535 c-24 -28 -48 -33 -48 -10 0 19 -30 19 -56 0 -25 -19 -34
-19 -34 0 0 12 -15 15 -72 16 -173 3 -222 -2 -269 -26 -33 -17 -54 -11 -45 12
6 13 -9 15 -116 9 -329 -17 -533 -22 -959 -25 l-106 -1 -29 -42 c-38 -54 -40
-130 -5 -199 l23 -45 236 2 c226 2 678 11 977 19 106 3 706 11 1191 15 33 0
70 79 65 138 -2 19 -98 60 -183 78 -40 9 -128 16 -195 17 -119 1 -122 2 -128
25 -6 25 -32 25 -28 1 2 -12 -13 -14 -78 -14 -81 1 -104 11 -92 42 9 23 -26
14 -49 -12z"/>
<path d="M3109 2530 l-24 -19 37 11 c21 6 35 15 32 20 -8 13 -20 10 -45 -12z"/>
</g>
</svg>
