<?xml version="1.0" encoding="UTF-8"?>
<svg width="1200pt" height="1200pt" version="1.1" viewBox="0 0 1200 1200" xmlns="http://www.w3.org/2000/svg">
 <g fill-rule="evenodd">
  <path d="m449.58 576.77c71.113-0.17969 159.01 2.7109 224.64-2.8789 70.211-5.9883 144.71 11.594 213.12-8.6406v-20.16c-52.766-16.43-123.27-17.844-167.04-11.52-4.8828-4.7148-7.1523-12.047-17.281-11.52-4.9922 16.285-29.461-5.0508-40.309 11.52 2.5078-9.2383-4.4297-9-8.6406-11.52-17.328 1.2852-46.414 6.8633-69.121 0-11.258 7.6562-13.992 6.457-25.922 11.52 1.7539-2.6875 6.707-10.621-2.8789-8.6406-18.168-0.85156-37.309 2.5312-54.719 2.8789-91.789 1.8242-201.14-4.9219-282.24 8.6406-4.0938 9.6367-4.0938 27.805 0 37.441 66.539 14.324 149.28 3.082 230.39 2.8789z"/>
  <path d="m760.63 645.89c-18.203 7.5234-44.711 11.617-54.73-5.7461-2.207 3.4453-16.043 8.4609-17.27 8.6406 0.22656-0.035156 5.6641-4.6094 2.8672-5.7617-7.2461-3.0117-16.199 8.9023-28.789 8.6523 0.52734 0.011719-8.7461-8.6641-8.6406-8.6523-26.664-4.5352-76.609 3.0703-95.039 11.52-1.8359-6.2773 8.1602-9.1562-2.8789-8.6406-34.262 5.5195-77.809-5.125-109.44 0-62.293 10.094-164.14-6.5898-227.52 11.52-5.0742 10.621-2.4961 26.219 0 37.441 69 14.93 157.5-2.5938 233.28 2.8789 50.34 3.6367 112.93-5.8203 172.8-5.7617 87.73 0.10938 193.04 5.125 259.2-2.8672 1.7539-6.8984 4.1523-13.152 2.8789-23.051-31.105-21.648-106.23-3.7539-126.72-20.172z"/>
  <path d="m1040 398.22c-0.28906-77.258-54.266-74.398-118.08-74.879-66.215-0.50391-122.06-3.5273-184.31 0-10.008 2.125-15.254-15.227-23.039-5.7617 9.5742 9.4062-70.668-3.0469-54.73 0 1.6094-0.011719 3.2656 2.3281 0 2.8789-20.734-3.625-48.984 11.664-28.801-5.7617-30.625 1.5703-51.996-1.1055-79.02 1.6328-2.2188 1.6211-6.8164 0.85156-10.246 1.2461 3.5391-0.51562 6.9258-0.91016 10.246-1.2461 0.5625-0.40625 1.0781-0.85156 1.2617-1.6328-18.574 0.99609-46.992-1.6211-66.238 8.6406-5.5547-1.1641-0.25391-13.188-11.52-8.6406-12.406-3.6719-20.27 1.4766-34.559 2.8789-30.168-7.1055-65.977-1.8711-106.56-2.8789-39.254-0.98437-80.941 7.3438-109.44 5.7617 4.3086-0.49219 10.633 1.0195 11.52-2.8789-63-4.0195-167.65-16.297-175.68 51.84v190.08c15.406 155.38-7.9453 316.99 2.8789 466.55 1.1055 15.336 6.1445 39.406 14.398 48.961 26.074 30.191 134.22 17.328 181.44 17.281 242.5-0.26562 481.5-14.891 745.92-8.6406 46.402-27.238 36.086-67.02 34.559-144-3.5742-181.35 0.60547-380.31-0.007812-541.43zm-43.199 648c-89.902-6.0586-173.29 2.5312-244.8-11.52 10.668 7.8594-42.359 9.8984-48.961 0h-5.7461c1.9688 7.5977 8.2422 1.9922-14.398 5.7461-6.168 1.0312-13.621 5.9883-17.27 2.8789 0.3125-4.6445 4.1406-5.7734 8.9648-5.8906-28.621-0.74219-49.414-8.3516-83.844 3.0117 21.66-10.117-39.539-7.1172-48.961 2.8789-9.9961-12.168-27.457-12.227-43.199-5.7461-55.297-5.7344-138.96-4.2617-201.6 5.7461 0.46875-3.3711 5.2578-2.4258 8.6406-2.8789-45.996-14.555-124.18 3.3945-187.2-5.7461-1.5-237.96-5.0625-414.06-2.8789-659.52 295.82-9.875 553.75-15.121 881.28-8.6406 5.8867 210.17 11.984 462.66-0.027344 679.68z"/>
  <path d="m1129.3 317.57c0-47.891 8.8203-113.1 0-158.4-11.941-61.246-102.17-43.199-161.28-43.199-60.109 0-126.6-3.6719-184.31-8.6406-35.762-3.0859-82.801 9-109.44 2.8789 5.3633-0.39453 9.625-1.8945 11.52-5.7617-11.363 3.4453-28.477 11.328-34.559-2.8789h-34.559c0.63672 2.2422 2.3984 3.3477 5.7461 2.8789-9.2266 1.7891-26.914 11.797-34.559 5.7617 0.99609 0.78125 24.863-6.6602 8.6406-8.6406h-8.6406c-14.52 12.133-43.078-3.3477-57.602 11.52-4.6445-7.8359-16.934-8.0273-25.922-11.52h-2.8789c-6.4219 2.5664-31.379 12.898-34.559 0h-54.719c-13.621 10.715-33.805 3.5742-51.84 2.8789-40.465-1.5703-78.254 6.0977-109.66 6.0859 1.9453-0.16797 3.2656-0.9375 3.0977-3.2148-44.809-1.6914-87.035-5.0039-100.8 34.559-15.301 44.016 6.1328 115.07 2.8789 161.28 12.887 12.289 38.375 9.5156 48.961-2.8789 4.9688-44.207 1.5-86.594 2.8789-138.24 167.21-6.1328 304.27 6.1211 463.68-5.7617 119.04 15.359 271.39-6.9609 414.73 8.6406 6.1328 198.65 3.1445 430.73 5.7461 659.52-8.2422 15.984-33.445 11.375-31.68 31.691 3.168 36.348 74.977 10.055 72-25.922v-37.441c-5.2656-151-2.875-322.66-2.875-475.2zm-889.92-207.35c1.957-0.74219 5.3281-0.058594 8.3281 0.23828-2.7969-0.046875-5.6289-0.046875-8.3281-0.23828z"/>
  <path d="m561.9 772.62c2.1016-4.7148-5.7227-12.527-5.7617-5.7617 7.6445 9.1562-18.191-1.3438-25.922 5.7617-1.2344-7.957 10.738-2.7109 11.52-8.6523-9.1914-2.4609-8.9023 4.5352-14.398 5.7617v-8.6406c-10.199-1.5586-7.0781 10.199-17.281 8.6406 6.8281-8.2422-12.469-5.6523-14.398 2.8789v-8.6523c-25.586 2.6875-43.379-5.1836-66.238 8.6523v-8.6523c-73.883 5.4727-131.39 4.5977-201.6 5.7617-16.441 16.262-14.508 28.656-2.8789 48.961 135.93 0.035156 251.8-6.7422 414.72-5.7617 4.5352-6.9844 10.738-12.289 8.6406-25.922-30.871-17.09-56.398-14.34-86.398-14.375z"/>
 </g>
</svg>
